<?xml version="1.0" encoding="UTF-8"?>
<svg fill="none" version="1.1" viewBox="0 0 40 40" xmlns="http://www.w3.org/2000/svg">
 <defs>
  <clipPath>
   <rect width="40" height="40" fill="#fff"/>
  </clipPath>
 </defs>
 <g>
  <ellipse cx="19.865" cy="23.128" rx="17.181" ry="17.163" fill="#fff" stroke-width="1.4276"/>
 </g>
 <path d="m19.998 0.19755c-11.066 0.021288-20.019 9.0089-19.998 20.075 0.01792 9.3588 6.5122 17.458 15.643 19.51 0.4501 0.0996 0.8958-0.1846 0.9954-0.6348 0.0131-0.0591 0.0197-0.1194 0.0197-0.18v-4.5416c0-0.4611-0.3738-0.8349-0.8348-0.8349h-1.6697c-2.0838 0-3.5063-1.9752-4.7536-3.7183l-0.38405-0.531c0.56172 0.3138 1.0986 0.6699 1.6062 1.0653 0.9394 0.8748 2.1481 1.4046 3.4279 1.5027 1.2586 0.1752 2.4208-0.7031 2.596-1.9617 0.0245-0.176 0.0285-0.3542 0.012-0.5312v-0.5826c0-0.3731-0.2474-0.7009-0.6061-0.8031-4.6318-1.3108-7.7424-4.7803-7.7424-8.6323 0.03452-2.0841 0.88942-4.0706 2.3793-5.5283 0.2405-0.2479 0.3035-0.6183 0.1587-0.9317-0.6075-1.3756-0.5161-2.9594 0.2454-4.2561 1.172 0.47203 2.2193 1.208 3.0605 2.1505 0.2265 0.2687 0.597 0.3669 0.9267 0.2455 3.1797-1.1465 6.6599-1.1465 9.8395 0 0.3283 0.119 0.696 0.021 0.9216-0.2455 0.8406-0.94299 1.8873-1.6795 3.0589-2.1522 0.7615 1.2966 0.8529 2.8804 0.2455 4.256-0.145 0.3135-0.0819 0.6839 0.1586 0.9317 1.4909 1.4579 2.3465 3.4451 2.381 5.53 0 4.044-3.4547 7.6655-8.4036 8.806-0.4493 0.1033-0.7299 0.5513-0.6266 1.0006 0.0163 0.0707 0.0416 0.139 0.0756 0.2032 0.4677 1.0511 0.6756 2.1993 0.6061 3.3477v6.2112c0 0.4611 0.3738 0.8349 0.8349 0.8349 0.0606-3e-4 0.121-7e-3 0.1803-0.0201 10.796-2.4262 17.582-13.145 15.156-23.942-2.0519-9.131-10.152-15.625-19.51-15.643z" fill="#455a64"/>
</svg>
