<?xml version="1.0" encoding="UTF-8"?>
<svg fill="none" version="1.1" viewBox="0 0 40 40" xmlns="http://www.w3.org/2000/svg">
 <g clip-path="url(#clip0)">
  <path d="m20 39.999c11.046 0 20-8.9543 20-20 0-11.046-8.9543-20-20-20-11.046 0-20 8.9543-20 20 0 11.046 8.9543 20 20 20z" fill="#007AB9"/>
  <path d="m31.95 21.609v8.2455h-4.7805v-7.6929c0-1.9316-0.6903-3.2508-2.4212-3.2508-1.3209 0-2.1056 0.8881-2.4521 1.7481-0.1259 0.3073-0.1583 0.734-0.1583 1.1651v8.0302h-4.7809s0.0642-13.029 0-14.378h4.7813v2.0375c-0.0097 0.0161-0.0232 0.0318-0.0318 0.0471h0.0318v-0.0471c0.6353-0.9775 1.7683-2.3751 4.3085-2.3751 3.1452 0 5.5032 2.055 5.5032 6.4705zm-19.594-13.064c-1.6353 0-2.7052 1.0735-2.7052 2.4839 0 1.3804 1.0389 2.4849 2.6425 2.4849h0.031c1.6674 0 2.7042-1.1045 2.7042-2.4849-0.0317-1.4104-1.0368-2.4839-2.6725-2.4839zm-2.4211 21.309h4.7792v-14.378h-4.7792v14.378z" fill="#F1F2F2"/>
 </g>
 <defs>
  <clipPath id="clip0">
   <rect width="40" height="40" fill="#fff"/>
  </clipPath>
 </defs>
</svg>
