<?xml version="1.0" encoding="UTF-8"?>
<svg version="1.1" viewBox="0 0 40 40" xmlns="http://www.w3.org/2000/svg">
 <path d="m20 0c11.045 0 20 8.955 20 20 0 11.046-8.955 20-20 20-11.045 0-20-8.9538-20-20 0-11.045 8.9538-20 20-20z" fill="#F4B459"/>
 <path d="m15.001 22.495c-1.3813 0-2.5025 1.12-2.5025 2.5025s1.12 2.5026 2.5025 2.5026c1.3826 0 2.5026-1.1201 2.5026-2.5026s-1.1202-2.5025-2.5026-2.5025zm-0.7388-6.2425c-0.9713 0-1.7575 0.7862-1.7575 1.7575 0 0.9699 0.7862 1.7575 1.7575 1.7575 3.2949 0 5.9762 2.6812 5.9762 5.9763 0 0.9699 0.7863 1.7575 1.7588 1.7575 0.9687 0 1.7575-0.7875 1.7575-1.7575 0-5.2339-4.2587-9.4913-9.4925-9.4913zm0.0338-6.2513c-0.9925 0-1.7975 0.805-1.7975 1.7974 0 0.9925 0.805 1.7975 1.7975 1.7975 6.6762 0 12.109 5.4313 12.109 12.108 0 0.9924 0.8037 1.7975 1.7974 1.7975s1.7975-0.8063 1.7975-1.7975c-0.0012-8.6588-7.0461-15.702-15.704-15.702z" fill="#fff"/>
</svg>
