<?xml version="1.0" encoding="UTF-8"?>
<svg fill="none" version="1.1" viewBox="0 0 40 40" xmlns="http://www.w3.org/2000/svg">
 <g clip-path="url(#clip0)">
  <path d="m20.001 40c11.046 0 20-8.9542 20-20 0-11.046-8.9542-20-20-20s-20 8.9542-20 20c0 11.046 8.9542 20 20 20z" fill="#55ACEE"/>
  <path d="m32.251 14.374c-0.857 0.3801-1.779 0.6371-2.7458 0.7519 0.9872-0.5915 1.7447-1.5273 2.1023-2.6443-0.9237 0.548-1.9473 0.9455-3.0357 1.1598-0.872-0.9288-2.1145-1.5092-3.4903-1.5092-2.6396 0-4.7805 2.1409-4.7805 4.7806 0 0.3747 0.0424 0.7394 0.1244 1.0895-3.973-0.1993-7.4957-2.1024-9.8537-4.9955-0.4114 0.7059-0.64746 1.5276-0.64746 2.4036 0 1.6582 0.84456 3.122 2.1267 3.9791-0.7833-0.0246-1.5209-0.2396-2.1652-0.5986-3.6e-4 0.0203-3.6e-4 0.0406-3.6e-4 0.0606 0 2.3163 1.6485 4.2482 3.835 4.6871-0.4007 0.1098-0.8239 0.1679-1.2592 0.1679-0.3087 0-0.6079-0.0296-0.8995-0.0852 0.6082 1.8988 2.3733 3.281 4.4657 3.3199-1.6364 1.2824-3.6974 2.0464-5.9377 2.0464-0.38507 0-0.76654-0.0225-1.1398-0.067 2.1145 1.3569 4.6279 2.148 7.3275 2.148 8.7931 0 13.602-7.2844 13.602-13.602 0-0.2071-0.0046-0.4135-0.0139-0.6182 0.9348-0.6738 1.7452-1.5155 2.3858-2.4742z" fill="#F1F2F2"/>
 </g>
 <defs>
  <clipPath id="clip0">
   <rect width="40" height="40" fill="#fff"/>
  </clipPath>
 </defs>
</svg>
