<?xml version="1.0" encoding="UTF-8"?>
<svg fill="none" version="1.1" viewBox="0 0 40 40" xmlns="http://www.w3.org/2000/svg">
 <g clip-path="url(#clip0)">
  <path d="m20 40c11.046 0 20-8.9543 20-20 0-11.046-8.9543-20-20-20-11.046 0-20 8.9543-20 20 0 11.046 8.9543 20 20 20z" fill="#D42428"/>
  <path d="m34.142 5.856c7.8105 7.8111 7.8112 20.475 0 28.286-7.8105 7.8105-20.475 7.8108-28.286 0l28.286-28.286z" fill="#CC202D"/>
  <path d="m39.598 24.006-9.8986-9.8983-11.674 1.3292-7.0617 10.933 13.195 13.195c7.7581-1.6412 13.857-7.7779 15.439-15.558z" fill="#BA202E"/>
  <path d="m30.466 16.14c0-1.6766-1.3582-3.0355-3.0339-3.0355h-14.234c-1.6753 0-3.0333 1.3593-3.0333 3.0355v8.1399c0 1.6767 1.3582 3.0356 3.0333 3.0356h14.234c1.6761 0 3.034-1.3593 3.034-3.0356v-8.1399h2e-4zm-12.182 7.5039v-7.6453l5.7979 3.8228-5.7979 3.8225z" fill="#fff"/>
 </g>
 <defs>
  <clipPath id="clip0">
   <rect width="40" height="40" fill="#fff"/>
  </clipPath>
 </defs>
</svg>
