<svg xmlns="http://www.w3.org/2000/svg" viewBox="0 0 101.61 121.29"><defs><style>.cls-1{fill:#fff;}.cls-2{fill:#65c8d0;}</style></defs><title>ChronoBLANC</title><g id="Calque_2" data-name="Calque 2"><g id="Calque_1-2" data-name="Calque 1"><path class="cls-1" d="M97.11,39.07a4.82,4.82,0,0,0,0-6.8l-3.65-3.65a4.82,4.82,0,0,0-6.8,0l-4.47,4.5A48.57,48.57,0,0,0,58,22.24V16.91h2.55a5,5,0,0,0,4.9-4.9V6.83A4.93,4.93,0,0,0,60.59,2H41.07a4.93,4.93,0,0,0-4.9,4.83V12a5,5,0,0,0,4.9,4.9h2.55v5.34a48.79,48.79,0,1,0,56,48.27,48.3,48.3,0,0,0-7.69-26.25Z"/><path class="cls-2" d="M50.8,121.29A50.79,50.79,0,0,1,41.61,20.54V18.91h-.55a7,7,0,0,1-6.9-6.9V6.83A7,7,0,0,1,41.07,0H60.59a7,7,0,0,1,6.9,6.83V12a7,7,0,0,1-6.9,6.9H60v1.64a50.69,50.69,0,0,1,22,9.88l3.2-3.22a6.82,6.82,0,0,1,9.64,0l3.65,3.65a6.82,6.82,0,0,1,0,9.63l-4.07,4.07A50.75,50.75,0,0,1,50.8,121.29ZM41.07,4a2.94,2.94,0,0,0-2.9,2.83V12a3,3,0,0,0,2.9,2.9h4.55V24l-1.71.25a46.79,46.79,0,1,0,53.7,46.3,46.35,46.35,0,0,0-7.37-25.17L89.36,44l6.33-6.33a2.81,2.81,0,0,0,0-4L92,30a2.88,2.88,0,0,0-4,0L82.3,35.82l-1.41-1.18A46.7,46.7,0,0,0,57.75,24.22L56,24V14.91h4.55a3,3,0,0,0,2.9-2.9V6.83A2.94,2.94,0,0,0,60.59,4Z"/><path class="cls-2" d="M50.83,31.33h-.46A39.22,39.22,0,0,0,11.66,69.65a2.4,2.4,0,0,0-.26,1.08,2.26,2.26,0,0,0,.29,1.13,39.21,39.21,0,0,0,38.56,37.79,1.59,1.59,0,0,0,.34,0,1.17,1.17,0,0,0,.29,0,39.16,39.16,0,0,0,0-78.32Z"/><path class="cls-1" d="M53,104.8v-4.47a2.4,2.4,0,0,0-4.81,0v4.45A34.39,34.39,0,0,1,16.57,73.16h4.21a2.4,2.4,0,1,0,0-4.81H16.52A34.42,34.42,0,0,1,48.18,36.23v4.47a2.4,2.4,0,1,0,4.81,0v-4.5A34.43,34.43,0,0,1,85.13,68.35H80.4a2.4,2.4,0,1,0,0,4.81h4.69A34.4,34.4,0,0,1,53,104.8Z"/><path class="cls-2" d="M64.51,68.59H53.23V52.7a2.4,2.4,0,1,0-4.81,0V71a2.33,2.33,0,0,0,2.33,2.38H64.48a2.4,2.4,0,0,0,0-4.81Z"/></g></g></svg>