<svg xmlns="http://www.w3.org/2000/svg" viewBox="0 0 117.8 86.62"><defs><style>.cls-1{fill:#fff;}.cls-2{fill:#65c8d0;}.cls-3{fill:#2977ff;}</style></defs><title>CovoiturageBLANC</title><g id="Calque_2" data-name="Calque 2"><g id="Calque_1-2" data-name="Calque 1"><path class="cls-1" d="M28.76,69.44H89V80.73a3.19,3.19,0,0,0,3.15,3.15H107.3a3,3,0,0,0,3-3.15c0-6,0-11.93.07-17.92s.07-11.87.07-17.84l-4.6-11.07,2,0c3.93-.1,6.36-1.2,7-3.2a4.07,4.07,0,0,0-.45-3.39H102.76l-7.6-17.17c-4-5.55-6.83-7.34-11.64-7.34H34.36c-4.81,0-7.66,1.79-11.64,7.34l-7.6,17.17H3.4a3.94,3.94,0,0,0-.49,3.34c.63,2,3.11,3.16,7,3.26l2,.05L7.28,45c.14,12,.14,24.09.14,35.77a3.19,3.19,0,0,0,3.15,3.15H25.75a3.05,3.05,0,0,0,3-3.15Z"/><path class="cls-2" d="M40.78,12.36a4.07,4.07,0,1,0,4.07,4.07A4,4,0,0,0,40.78,12.36Zm0,10.88a6.81,6.81,0,1,1,0-13.62,6.74,6.74,0,0,1,6.81,6.81A6.82,6.82,0,0,1,40.78,23.25Z"/><path class="cls-2" d="M33.5,31.72l-2.66-.63.45-1.9A8.42,8.42,0,0,1,35.5,23a11.89,11.89,0,0,1,2.93-1,18.73,18.73,0,0,1,2.44-.21,10.06,10.06,0,0,1,2.51.22,9.65,9.65,0,0,1,2.87,1,8.47,8.47,0,0,1,4.22,6.22l.36,1.89-2.69.51-.36-1.9a5.77,5.77,0,0,0-2.85-4.32,7.1,7.1,0,0,0-2.15-.76,10.62,10.62,0,0,0-3.92,0,9.28,9.28,0,0,0-2.1.77A5.74,5.74,0,0,0,34,29.74Z"/><path class="cls-2" d="M68,31.31l-2.66-.63.45-1.9A8.42,8.42,0,0,1,70,22.63a11.89,11.89,0,0,1,2.93-1,18.78,18.78,0,0,1,2.44-.21,10.05,10.05,0,0,1,2.51.22,9.65,9.65,0,0,1,2.87,1A8.47,8.47,0,0,1,85,28.85l.36,1.89-2.69.51-.36-1.9A5.77,5.77,0,0,0,79.47,25a7.1,7.1,0,0,0-2.15-.76,10.62,10.62,0,0,0-3.91,0,9.26,9.26,0,0,0-2.1.77,5.74,5.74,0,0,0-2.8,4.28Z"/><path class="cls-2" d="M75.33,22.84a6.81,6.81,0,1,1,0-13.62A6.74,6.74,0,0,1,82.14,16,6.82,6.82,0,0,1,75.33,22.84Zm0-10.88A4.07,4.07,0,1,0,79.4,16,4,4,0,0,0,75.33,12Z"/><path class="cls-3" d="M107.3,86.62H92.12a5.9,5.9,0,0,1-5.89-5.89V72.18H31.49v8.55a5.76,5.76,0,0,1-5.75,5.89H10.58a5.9,5.9,0,0,1-5.89-5.89c0-11.76,0-23.92-.15-36v-.28l3.32-8C.53,35.56,0,30.88,0,29.37c0-2.3,1.32-4.87,3.14-4.87h10.2L20.4,8.6C25,2.17,28.52,0,34.35,0H83.52c5.84,0,9.36,2.17,14,8.6l.14.24,6.93,15.67h10.19c1.77,0,3,2.56,3.07,4.86,0,1.51-.54,6.19-7.93,7.07l3.31,8v.27c0,6.08,0,12.11-.07,18.13S113,74.77,113,80.73A5.76,5.76,0,0,1,107.3,86.62ZM28.76,69.44H89V80.73a3.19,3.19,0,0,0,3.15,3.15H107.3a3,3,0,0,0,3-3.15c0-6,0-11.93.07-17.92s.07-11.87.07-17.84l-4.6-11.07,2,0c3.93-.1,6.36-1.2,7-3.2a4.07,4.07,0,0,0-.45-3.39H102.76l-7.6-17.17c-4-5.55-6.83-7.34-11.64-7.34H34.35c-4.81,0-7.66,1.79-11.64,7.34l-7.6,17.17H3.4a3.94,3.94,0,0,0-.49,3.34c.63,2,3.11,3.16,7,3.26l2,.05L7.28,45c.14,12,.14,24.09.14,35.77a3.19,3.19,0,0,0,3.15,3.15H25.75a3.05,3.05,0,0,0,3-3.15Z"/><path class="cls-3" d="M99.65,32.35H18.22l.89-1.94c.73-1.59,1.44-3.19,2.16-4.82,1.61-3.63,3.28-7.37,5.3-11.42,1.68-2.9,3.75-5.94,7.66-6.29H83.52c4,.36,6.12,3.4,7.75,6.23C93.33,18.23,95,22,96.62,25.63c.72,1.62,1.43,3.21,2.15,4.79ZM22.47,29.61H95.4l-1.28-2.87c-1.6-3.61-3.26-7.34-5.26-11.34-1.65-2.84-3.09-4.58-5.46-4.79h-49c-2.25.21-3.69,1.94-5.38,4.86-2,3.92-3.61,7.64-5.21,11.23Z"/><path class="cls-3" d="M74.33,60.21H43.4a4.8,4.8,0,0,1,0-9.59H74.33a4.8,4.8,0,0,1,0,9.59ZM43.4,53.36a2.17,2.17,0,0,0-2,2.13,2.12,2.12,0,0,0,2,2H74.33a2,2,0,0,0,2-2,2.07,2.07,0,0,0-2-2.13Z"/><path class="cls-2" d="M22.54,61.53a8.67,8.67,0,0,1-8.66-8.66,8.57,8.57,0,0,1,8.66-8.66,8.67,8.67,0,0,1,8.66,8.66A8.78,8.78,0,0,1,22.54,61.53Zm0-14.59a5.86,5.86,0,0,0-5.92,5.93,5.93,5.93,0,0,0,5.92,5.93,6.08,6.08,0,0,0,5.93-5.93A5.93,5.93,0,0,0,22.54,46.94Z"/><path class="cls-2" d="M95.43,61.63A8.67,8.67,0,0,1,86.77,53a8.57,8.57,0,0,1,8.66-8.66A8.67,8.67,0,0,1,104.09,53,8.78,8.78,0,0,1,95.43,61.63Zm0-14.59A5.86,5.86,0,0,0,89.5,53a5.93,5.93,0,0,0,5.93,5.93A6.08,6.08,0,0,0,101.35,53,5.93,5.93,0,0,0,95.43,47Z"/></g></g></svg>