<svg xmlns="http://www.w3.org/2000/svg" viewBox="0 0 129.47 86.95"><defs><style>.cls-1{fill:#fff;}.cls-2{fill:#65c8d0;}</style></defs><title>groupeBLANC</title><g id="Calque_2" data-name="Calque 2"><g id="Calque_1-2" data-name="Calque 1"><circle class="cls-1" cx="65.19" cy="21.04" r="19.04"/><path class="cls-1" d="M35.28,70a29.92,29.92,0,1,1,59.84,0"/><path class="cls-2" d="M95.11,72a2,2,0,0,1-2-2,27.92,27.92,0,0,0-55.84,0,2,2,0,0,1-4,0,31.92,31.92,0,0,1,63.84,0A2,2,0,0,1,95.11,72Z"/><path class="cls-2" d="M65.19,42.07a21,21,0,1,1,21-21A21.06,21.06,0,0,1,65.19,42.07ZM65.19,4a17,17,0,1,0,17,17A17.06,17.06,0,0,0,65.19,4Z"/><circle class="cls-1" cx="31.92" cy="36" r="19.04"/><path class="cls-1" d="M2,84.95a29.92,29.92,0,1,1,59.84,0"/><path class="cls-2" d="M61.84,86.95a2,2,0,0,1-2-2A27.92,27.92,0,0,0,4,84.95a2,2,0,0,1-4,0,31.92,31.92,0,0,1,63.84,0A2,2,0,0,1,61.84,86.95Z"/><path class="cls-2" d="M31.92,57A21,21,0,1,1,53,36,21.06,21.06,0,0,1,31.92,57Zm0-38.07A17,17,0,1,0,49,36,17.06,17.06,0,0,0,31.92,19Z"/><circle class="cls-1" cx="97.55" cy="36" r="19.04"/><path class="cls-1" d="M67.63,84.95a29.92,29.92,0,1,1,59.84,0"/><path class="cls-2" d="M127.47,86.95a2,2,0,0,1-2-2,27.92,27.92,0,0,0-55.84,0,2,2,0,0,1-4,0,31.92,31.92,0,0,1,63.84,0A2,2,0,0,1,127.47,86.95Z"/><path class="cls-2" d="M97.55,57a21,21,0,1,1,21-21A21.06,21.06,0,0,1,97.55,57Zm0-38.07a17,17,0,1,0,17,17A17.06,17.06,0,0,0,97.55,19Z"/></g></g></svg>