<svg xmlns="http://www.w3.org/2000/svg" viewBox="0 0 122.87 111.52"><defs><style>.cls-1{fill:#fff;}.cls-2{fill:#2977ff;}.cls-3{fill:#65c8d0;}</style></defs><title>EconomieBLANC</title><g id="Calque_2" data-name="Calque 2"><g id="Calque_1-2" data-name="Calque 1"><path class="cls-1" d="M107.45,51.74h7.05a6.36,6.36,0,0,1,6.36,6.36V76.05a6.36,6.36,0,0,1-6.36,6.36h-6.06A38.12,38.12,0,0,1,98.32,93.1v10.05A6.36,6.36,0,0,1,92,109.52H79.16a6.36,6.36,0,0,1-6.36-6.36l0-.16a68.76,68.76,0,0,1-17.39.21h0A6.31,6.31,0,0,1,49,109.52H36.23a6.36,6.36,0,0,1-6.36-6.36V94.26C20,87.71,13.8,78.3,13.8,67.83,13.8,48,35.94,32,63.26,32,82.58,32,99.32,40,107.45,51.74Z"/><path class="cls-2" d="M92,111.52H79.16a8.38,8.38,0,0,1-8.1-6.29,71.12,71.12,0,0,1-14,.16A8.36,8.36,0,0,1,49,111.52H36.23a8.37,8.37,0,0,1-8.36-8.36V95.32C17.64,88.21,11.8,78.24,11.8,67.83,11.8,47,34.88,30,63.26,30c19,0,36.21,7.53,45.22,19.73h6a8.37,8.37,0,0,1,8.36,8.36V76.05a8.37,8.37,0,0,1-8.36,8.36h-5a40,40,0,0,1-9.23,9.69v9A8.37,8.37,0,0,1,92,111.52ZM74.47,100.74l.33,2.42a4.37,4.37,0,0,0,4.36,4.36H92a4.37,4.37,0,0,0,4.36-4.36V92.08l.82-.6a36,36,0,0,0,9.6-10.12l.59-1h7.18a4.37,4.37,0,0,0,4.36-4.36V58.1a4.37,4.37,0,0,0-4.36-4.36h-8.1l-.6-.86C97.72,41.24,81.41,34,63.26,34,37.09,34,15.8,49.18,15.8,67.83,15.8,77.17,21.33,86.2,31,92.6l.89.59v10a4.37,4.37,0,0,0,4.36,4.36H49a4.29,4.29,0,0,0,4.36-4.31V101l2.23.26a67,67,0,0,0,16.88-.2Z"/><polyline class="cls-1" points="94.94 44.99 94.94 21.91 79.32 37.54"/><path class="cls-2" d="M94.94,47a2,2,0,0,1-2-2V26.74L80.73,39a2,2,0,0,1-2.83-2.83l19-19V45A2,2,0,0,1,94.94,47Z"/><path class="cls-1" d="M98.22,59.76a7.26,7.26,0,1,0-14.51,0"/><path class="cls-3" d="M98.22,61.76a2,2,0,0,1-2-2,5.26,5.26,0,1,0-10.51,0,2,2,0,0,1-4,0,9.26,9.26,0,1,1,18.51,0A2,2,0,0,1,98.22,61.76Z"/><line class="cls-1" x1="115.58" y1="58.84" x2="115.58" y2="74.73"/><path class="cls-3" d="M115.58,76.73a2,2,0,0,1-2-2V58.84a2,2,0,1,1,4,0V74.73A2,2,0,0,1,115.58,76.73Z"/><path class="cls-1" d="M74,41.78c0-1.77-5.25-3.21-11.72-3.21S50.53,40,50.53,41.78"/><path class="cls-3" d="M74,43.78A2,2,0,0,1,72,42.24c-.84-.62-4.33-1.67-9.78-1.67s-8.94,1.05-9.78,1.67a2,2,0,0,1-3.95-.46c0-5,11.43-5.21,13.72-5.21S76,36.82,76,41.78A2,2,0,0,1,74,43.78Z"/><path class="cls-3" d="M14.23,62.53c-3,0-7.27-1-7.67-4.68,0-.05,0-.32-.06-.73l-.89-.35C2.44,55.45.59,53.58.12,51.2c-.73-3.65,2.17-6.7,2.51-7A2,2,0,1,1,5.46,47C5,47.44,3.77,49.09,4,50.42c.22,1.06,1.4,1.86,2.53,2.4a9.18,9.18,0,0,1,1.64-4.75,3.41,3.41,0,0,1,2.42-1.29A5.29,5.29,0,0,1,16.4,51.3a5.88,5.88,0,0,1-1.78,5.64,5.37,5.37,0,0,1-3.27,1.15,9.24,9.24,0,0,0,3.38.44,2,2,0,0,1,2.1,1.89,2,2,0,0,1-1.88,2.1ZM10.48,54a2.34,2.34,0,0,0,1.63-.22A2.18,2.18,0,0,0,12.46,52c-.19-1.06-.84-1.23-1.28-1.24A8.77,8.77,0,0,0,10.48,54Z"/><line class="cls-1" x1="62.48" y1="25.74" x2="62.48" y2="2"/><path class="cls-3" d="M62.48,27.74a2,2,0,0,1-2-2V2a2,2,0,1,1,4,0V25.74A2,2,0,0,1,62.48,27.74Z"/><line class="cls-1" x1="55.38" y1="26.43" x2="39.26" y2="10.31"/><path class="cls-3" d="M55.38,28.43A2,2,0,0,1,54,27.85L37.84,11.72a2,2,0,0,1,2.83-2.83L56.79,25a2,2,0,0,1-1.41,3.41Z"/><line class="cls-1" x1="69.57" y1="25.74" x2="85.7" y2="9.62"/><path class="cls-3" d="M69.57,27.74a2,2,0,0,1-1.41-3.41L84.28,8.2A2,2,0,1,1,87.11,11L71,27.15A2,2,0,0,1,69.57,27.74Z"/><path class="cls-3" d="M72.3,78.85a12.78,12.78,0,0,1-8.46,2.87A13.87,13.87,0,0,1,55.29,79a13.06,13.06,0,0,1-4.88-7.16H45.9L47,69.42h3A9.22,9.22,0,0,1,50,68.09q0-.72,0-1.07H45.9L47,64.63h3.36a13,13,0,0,1,4.72-7.47,13.53,13.53,0,0,1,8.6-2.85,14.41,14.41,0,0,1,5.8,1.16A12.47,12.47,0,0,1,74,58.76l-1.22,2.76a13.6,13.6,0,0,0-1.41-1.87,7.25,7.25,0,0,0-1.53-1.22,11.09,11.09,0,0,0-6-1.68A10.91,10.91,0,0,0,57,58.92a10.7,10.7,0,0,0-3.93,5.71H71.39L70.33,67H52.67a9.19,9.19,0,0,0,0,1q0,.49.07,1.43H69.29l-1.08,2.4H53.28a11.11,11.11,0,0,0,4.07,5.38,10.8,10.8,0,0,0,6.45,2.07,10.28,10.28,0,0,0,4.76-1.12,12.06,12.06,0,0,0,3.74-3Z"/></g></g></svg>