<svg xmlns="http://www.w3.org/2000/svg" viewBox="0 0 104.11 126.09"><defs><style>.cls-1{fill:#2977ff;}.cls-2{fill:#fff;}.cls-3{fill:#65c8d0;}</style></defs><title>ParkingBLANC</title><g id="Calque_2" data-name="Calque 2"><g id="Calque_1-2" data-name="Calque 1"><rect class="cls-1" width="41.31" height="41.31" rx="12" ry="12"/><path class="cls-2" d="M24.52,5.4H10.33V38.89h6.46v-11h7.44A11.29,11.29,0,0,0,35.29,16.67C35.3,11,30.73,5.41,24.52,5.4Zm-.41,16.33H16.87V11.62h7.32A5.05,5.05,0,0,1,29,16.75,4.84,4.84,0,0,1,24.11,21.74Z"/><rect class="cls-3" x="18.66" y="41.31" width="4" height="78.28"/><polygon class="cls-1" points="104.11 126.09 18.66 126.09 18.66 113.59 22.66 113.59 22.66 122.09 100.11 122.09 100.11 113.59 104.11 113.59 104.11 126.09"/><path class="cls-2" d="M40.6,111.34H82.12v7.78a2.2,2.2,0,0,0,2.17,2.17H94.75a2.1,2.1,0,0,0,2.07-2.17c0-4.11,0-8.23,0-12.35s0-8.18.05-12.3l-3.17-7.64,1.38,0c2.71-.07,4.38-.83,4.85-2.21a2.81,2.81,0,0,0-.31-2.34h-8L86.38,70.41c-2.75-3.83-4.71-5.06-8-5.06H44.46c-3.32,0-5.28,1.23-8,5.06L31.19,82.25H23.11a2.72,2.72,0,0,0-.34,2.3c.44,1.38,2.15,2.18,4.81,2.25l1.38,0-3.17,7.63c.1,8.29.1,16.61.1,24.66a2.2,2.2,0,0,0,2.17,2.17H38.52a2.1,2.1,0,0,0,2.07-2.17Z"/><path class="cls-3" d="M48.89,72A2.81,2.81,0,1,0,51.7,74.8,2.78,2.78,0,0,0,48.89,72Zm0,7.5a4.7,4.7,0,1,1,0-9.39,4.65,4.65,0,0,1,4.7,4.69A4.7,4.7,0,0,1,48.89,79.49Z"/><path class="cls-3" d="M43.87,85.34,42,84.9l.31-1.31a5.8,5.8,0,0,1,2.9-4.24,8.2,8.2,0,0,1,2-.72A12.91,12.91,0,0,1,49,78.48a6.93,6.93,0,0,1,1.73.15,6.65,6.65,0,0,1,2,.72,5.84,5.84,0,0,1,2.91,4.29l.25,1.3L54,85.29,53.72,84a4,4,0,0,0-2-3,4.9,4.9,0,0,0-1.48-.53,7.33,7.33,0,0,0-2.7,0,6.4,6.4,0,0,0-1.45.53A4,4,0,0,0,44.19,84Z"/><path class="cls-3" d="M67.69,85.06l-1.84-.44.31-1.31a5.8,5.8,0,0,1,2.9-4.24,8.2,8.2,0,0,1,2-.72,13,13,0,0,1,1.69-.14,6.93,6.93,0,0,1,1.73.15,6.65,6.65,0,0,1,2,.72,5.84,5.84,0,0,1,2.91,4.29l.25,1.3L77.79,85l-.25-1.31a4,4,0,0,0-2-3,4.9,4.9,0,0,0-1.48-.53,7.32,7.32,0,0,0-2.7,0,6.39,6.39,0,0,0-1.45.53A4,4,0,0,0,68,83.69Z"/><path class="cls-3" d="M72.71,79.22a4.7,4.7,0,1,1,0-9.39,4.65,4.65,0,0,1,4.7,4.69A4.7,4.7,0,0,1,72.71,79.22Zm0-7.5a2.81,2.81,0,1,0,2.81,2.81A2.78,2.78,0,0,0,72.71,71.71Z"/><path class="cls-1" d="M94.75,123.19H84.29a4.07,4.07,0,0,1-4.06-4.06v-5.9H42.49v5.9a4,4,0,0,1-4,4.06H28.06A4.07,4.07,0,0,1,24,119.13c0-8.11,0-16.49-.1-24.83V94.1l2.29-5.51c-5-.61-5.43-3.83-5.42-4.87,0-1.59.91-3.35,2.16-3.35h7l4.88-11C38,65,40.43,63.47,44.46,63.47h33.9c4,0,6.45,1.5,9.62,5.93l.09.17,4.78,10.8h7c1.22,0,2.09,1.77,2.11,3.35,0,1-.37,4.27-5.47,4.88l2.28,5.5v.19c0,4.19,0,8.35-.05,12.5s0,8.23,0,12.34A4,4,0,0,1,94.75,123.19ZM40.6,111.34H82.12v7.78a2.2,2.2,0,0,0,2.17,2.17H94.75a2.1,2.1,0,0,0,2.07-2.17c0-4.11,0-8.23,0-12.35s0-8.18.05-12.3l-3.17-7.64,1.38,0c2.71-.07,4.38-.83,4.85-2.21a2.81,2.81,0,0,0-.31-2.34h-8L86.38,70.41c-2.75-3.83-4.71-5.06-8-5.06H44.46c-3.32,0-5.28,1.23-8,5.06L31.19,82.25H23.11a2.72,2.72,0,0,0-.34,2.3c.44,1.38,2.15,2.18,4.81,2.25l1.38,0-3.17,7.63c.1,8.29.1,16.61.1,24.66a2.2,2.2,0,0,0,2.17,2.17H38.52a2.1,2.1,0,0,0,2.07-2.17Z"/><path class="cls-1" d="M89.48,85.77H33.33l.61-1.34c.5-1.09,1-2.2,1.49-3.32,1.11-2.5,2.26-5.08,3.65-7.87,1.16-2,2.58-4.09,5.28-4.34h34c2.79.25,4.22,2.35,5.34,4.29,1.43,2.85,2.58,5.44,3.69,7.95.5,1.12,1,2.21,1.48,3.3ZM36.27,83.88H86.55l-.88-2c-1.11-2.49-2.25-5.06-3.63-7.82-1.14-2-2.13-3.16-3.77-3.3H44.46c-1.55.14-2.54,1.34-3.71,3.35-1.35,2.7-2.49,5.26-3.59,7.74Z"/><path class="cls-1" d="M72,105H50.7a3.31,3.31,0,0,1,0-6.61H72A3.31,3.31,0,0,1,72,105ZM50.7,100.26a1.5,1.5,0,0,0-1.37,1.47,1.46,1.46,0,0,0,1.37,1.37H72a1.39,1.39,0,0,0,1.37-1.37A1.42,1.42,0,0,0,72,100.26Z"/><path class="cls-3" d="M36.31,105.89a6,6,0,0,1-6-6,5.91,5.91,0,0,1,6-6,6,6,0,0,1,6,6A6.05,6.05,0,0,1,36.31,105.89Zm0-10.06a4,4,0,0,0-4.08,4.09A4.09,4.09,0,0,0,36.31,104a4.19,4.19,0,0,0,4.09-4.09A4.09,4.09,0,0,0,36.31,95.83Z"/><path class="cls-3" d="M86.57,106a6,6,0,0,1-6-6,5.91,5.91,0,0,1,6-6,6,6,0,0,1,6,6A6.05,6.05,0,0,1,86.57,106Zm0-10.06A4,4,0,0,0,82.48,100a4.09,4.09,0,0,0,4.09,4.09A4.19,4.19,0,0,0,90.65,100,4.09,4.09,0,0,0,86.57,95.9Z"/></g></g></svg>