<?xml version="1.0" encoding="UTF-8"?>
<svg fill="none" version="1.1" viewBox="0 0 256 256" xmlns="http://www.w3.org/2000/svg">
 <g transform="matrix(.79206 0 0 .79206 56.747 10.775)">
  <path d="m158.44 271.7-133.12-0.752 28.997-176.9h72.2z" fill="#2977ff"/>
  <path d="m35.85 262.09 111.89 0.668-28.747-159.78h-57.075z" fill="#fff" opacity=".2"/>
  <path d="m123.76 31.822h-66.685v54.623h66.685z" fill="#2977ff"/>
  <path d="m114.9 40.675h-48.886v36.833h48.886z" fill="#fff" opacity=".2"/>
  <path d="m121.67 26.727h-62.423v-6.1806c0-11.275 9.2758-20.546 20.641-20.546h21.225c11.365 0 20.641 9.2709 20.641 20.63v6.0971z" fill="#2977ff"/>
  <path d="m68.524 17.873h43.872c-1.254-5.0948-5.85-8.9368-11.365-8.9368h-21.142c-5.5153 0-10.111 3.7585-11.365 8.9368z" fill="#fff" opacity=".2"/>
  <path d="m90.418 79.596c-9.9443 0-18.05-8.1016-18.05-18.041 0-9.9391 8.1058-18.041 18.05-18.041 9.9442 0 18.05 8.1016 18.05 18.041 0 9.939-8.022 18.041-18.05 18.041z" fill="#fff" opacity=".2"/>
  <g fill="#65c8d0">
   <path d="m90.418 52.368c-5.0139 0-9.1922 4.0925-9.1922 9.1873s4.0947 9.1874 9.1922 9.1874 9.1922-4.0926 9.1922-9.1874-4.0947-9.1873-9.1922-9.1873z"/>
   <path d="m40.529 63.56h-36.1c-2.4234 0-4.429-2.0045-4.429-4.4266s2.0056-4.4267 4.429-4.4267h36.017c2.4234 0 4.429 2.0046 4.429 4.4267s-1.922 4.4266-4.3454 4.4266z"/>
   <path d="m17.047 98.806c-1.1699 0-2.2563-0.4177-3.1755-1.3364-1.7549-1.7539-1.7549-4.5937 0-6.2641l24.485-24.472c1.7549-1.7539 4.5961-1.7539 6.2674 0 1.7549 1.754 1.7549 4.5937 0 6.2641l-24.485 24.472c-0.7521 0.9187-1.922 1.3364-3.0919 1.3364z"/>
   <path d="m40.529 52.786c-1.1699 0-2.2563-0.4176-3.1755-1.3363l-24.485-24.388c-1.7548-1.7539-1.7548-4.5937 0-6.2641 1.7549-1.7539 4.5961-1.7539 6.2674 0l24.485 24.472c1.7549 1.7539 1.7549 4.5937 0 6.2641-0.8356 0.8352-2.0055 1.2528-3.0919 1.2528z"/>
   <path d="m175.49 63.56h-36.017c-2.424 0-4.429-2.0045-4.429-4.4266s2.005-4.4267 4.429-4.4267h36.017c2.423 0 4.429 2.0046 4.429 4.4267s-1.922 4.4266-4.429 4.4266z"/>
   <path d="m162.87 98.806c-1.17 0-2.256-0.4177-3.175-1.3364l-24.485-24.472c-1.755-1.7539-1.755-4.5937 0-6.2641 1.755-1.7539 4.596-1.7539 6.267 0l24.485 24.472c1.755 1.754 1.755 4.5937 0 6.2641-0.752 0.9187-1.922 1.3364-3.092 1.3364z"/>
   <path d="m139.47 52.786c-1.17 0-2.256-0.4176-3.176-1.3363-1.755-1.7539-1.755-4.5937 0-6.2641l24.485-24.472c1.755-1.7539 4.596-1.7539 6.267 0 1.755 1.754 1.755 4.5937 0 6.2641l-24.484 24.472c-0.836 0.9187-1.922 1.3363-3.092 1.3363z"/>
   <path d="m123.59 102.98h-66.267c-6.6016 0-11.95-5.3455-11.95-11.944v-1.5869c0-6.5982 5.3482-11.944 11.95-11.944h66.184c6.601 0 11.95 5.3454 11.95 11.944v1.5869c0 6.5982-5.349 11.944-11.867 11.944z"/>
  </g>
  <path d="m57.326 86.445c-1.6713 0-3.0084 1.3364-3.0084 3.0068v1.5869c0 1.6704 1.3371 3.0068 3.0084 3.0068h66.184c1.671 0 3.008-1.3364 3.008-3.0068v-1.5869c0-1.6704-1.337-3.0068-3.008-3.0068z" fill="#fff" opacity=".2"/>
  <path d="m122.51 45.603h-64.178c-7.1866 0-12.953-5.8465-12.953-12.946v-1.8374c0-7.1829 5.8496-12.946 12.953-12.946h64.178c7.187 0 12.953 5.8465 12.953 12.946v1.7539c0 7.1829-5.766 13.029-12.953 13.029z" fill="#65c8d0"/>
  <path d="m58.329 26.727c-2.2562 0-4.0111 1.8374-4.0111 4.009v1.8375c0 2.255 1.8384 4.009 4.0111 4.009h64.178c2.256 0 4.011-1.8375 4.011-4.009v-1.8375c0-2.2551-1.838-4.009-4.011-4.009z" fill="#fff" opacity=".2"/>
  <path d="m149.08 296h-117.33c-7.6881 0-13.956-6.264-13.956-13.948v-6.014c0-7.684 6.2674-13.948 13.956-13.948h117.33c7.688 0 13.955 6.264 13.955 13.948v6.014c0 7.684-6.267 13.948-13.955 13.948z" fill="#65c8d0"/>
  <path d="m31.755 270.94c-2.7577 0-5.0139 2.255-5.0139 5.012v6.013c0 2.756 2.2562 5.011 5.0139 5.011h117.33c2.757 0 5.014-2.255 5.014-5.011v-6.013c0-2.757-2.257-5.012-5.014-5.012z" fill="#fff" opacity=".2"/>
 </g>
</svg>
