<svg xmlns="http://www.w3.org/2000/svg" viewBox="0 0 117.76 119.48"><defs><style>.cls-1{fill:#fff;}.cls-2{fill:none;stroke:#2977ff;stroke-miterlimit:10;stroke-width:4px;}</style></defs><title>PouceBLANC</title><g id="Calque_2" data-name="Calque 2"><g id="Calque_1-2" data-name="Calque 1"><rect class="cls-1" x="2" y="55.03" width="25.91" height="63.2" rx="3.5" ry="3.5"/><path class="cls-1" d="M108.81,109a7.43,7.43,0,0,0,7-7.61h0c0-4.19-3.13-7.61-7-7.61,3.82,0,7-3.42,7-7.61h0c0-4.19-3.13-7.61-7-7.61,3.82,0,7-3.42,7-7.61h0c0-4.19-3.13-7.61-7-7.61,3.82,0,7-3.42,7-7.61h0c0-4.19-3.13-7.61-7-7.61H66.88S71.52,41.76,69,22,58,3.21,54.24,2.79s-4,2.74-3.37,8S48.77,31,48.77,31s-5.06,10.32-9.27,19.8a32.7,32.7,0,0,1-11.59,13.9v43.4s15.8,7,33.28,6.11S77.69,110.23,108.81,109Z"/><rect class="cls-2" x="2" y="54.28" width="25.91" height="63.2" rx="3.5" ry="3.5"/><path class="cls-2" d="M108.81,108.21a7.43,7.43,0,0,0,7-7.61h0c0-4.19-3.13-7.61-7-7.61,3.82,0,7-3.42,7-7.61h0c0-4.19-3.13-7.61-7-7.61,3.82,0,7-3.42,7-7.61h0c0-4.19-3.13-7.61-7-7.61,3.82,0,7-3.42,7-7.61h0c0-4.19-3.13-7.61-7-7.61H66.88S71.52,41,69,21.21,58,2.46,54.24,2s-4,2.74-3.37,8-2.11,20.22-2.11,20.22-5.06,10.32-9.27,19.8A32.7,32.7,0,0,1,27.91,64v43.4s15.8,7,33.28,6.11S77.69,109.47,108.81,108.21Z"/></g></g></svg>