<?xml version="1.0" encoding="UTF-8"?>
<svg fill="none" version="1.1" viewBox="0 0 256 256" xmlns="http://www.w3.org/2000/svg">
 <g transform="matrix(1.4678 0 0 1.4678 31.8 25.256)" clip-path="url(#clip0)">
  <path d="m113.99 137.94c1.27-0.196 2.541-0.98 2.639-1.274l1.662-1.078 0.293-0.294c6.746-5.192 9.483-11.07 8.017-17.438-0.391-1.862-1.173-3.821-2.151-5.781 0 0 0-0.293-0.293-0.293l-1.076-1.666-0.293-0.294-37.638-46.046-5.1813-6.4661-13.687-16.851c3.2261-19.202-1.9552-31.84-15.642-37.229-6.8433-2.8411-13.784-3.9188-21.312-2.8411-0.9776 0.19594-1.9552 0.68579-2.6396 1.2736-0.6843 0.88174-1.0753 1.7635-0.8798 3.0371-0.0978 0.88174 0.391 1.8614 0.9776 2.5472l11.047 12.932-3.6172 8.9153h-12.025l-10.265-10.973c-0.8799-0.6858-1.7597-1.0777-2.6396-1.1757-0.87985-0.0979-1.8575 0.098-2.8351 0.9798-0.78209 0.7837-1.4664 1.6655-1.5642 2.6452-2.8351 17.929 2.053 30.567 14.664 37.425 3.8127 2.2534 8.3097 3.625 13.1 4.4087h0.2933l4.0082 0.3919 14.273 17.537 5.1813 6.4661 36.563 44.381h-0.2932c5.1813 6.76 11.047 9.503 17.694 8.327z" fill="#65c8d0"/>
  <path d="m104.7 125.11-51.911-62.309c-1.6619-1.9594-1.3686-4.8985 0.5866-6.564l1.0754-0.8818c1.9552-1.6655 4.888-1.3716 6.55 0.5878l51.911 62.31c1.662 1.959 1.369 4.898-0.586 6.564l-1.076 0.881c-1.955 1.666-4.888 1.372-6.55-0.588z" fill="#fff" opacity=".2"/>
  <path d="m54.062 91.308-6.2568 6.466 7.0388 7.5439c0.8799 0.98 1.1732 1.861 1.1732 2.841 0 1.274-0.2933 2.155-1.2709 2.743l-24.245 24.199s-0.2933 0-0.2933 0.294c-1.5642 1.567-3.4216 2.743-5.2791 3.331-6.2567 2.743-12.416 1.078-17.89-4.899-1.8575-1.567-3.6172-3.821-4.8881-6.27-3.0306-5.682-2.6396-11.266 0.58656-16.459 0.29329-0.294 0.29329-0.588 0.58657-0.588l25.516-25.374c0.9776-0.8817 1.8574-1.1756 2.835-1.1756 1.2709 0 2.1508 0.2939 3.1284 1.2736l7.0388 6.662 6.2567-6.4661 26.396-25.374 24.245-24.786-5.4746-6.9559c-0.5866-0.5879-0.8799-1.2737-0.8799-2.1554 0-0.9797 0-1.5675 0.3911-2.4493 0.2933-0.5878 0.9776-1.2736 1.5642-1.8614l21.898-12.148c0.978-0.29391 1.858-0.58782 2.835-0.58782 0.88 0.29391 1.858 0.68579 2.444 1.2736l8.505 8.8174c0.587 0.5878 0.88 1.5675 1.174 2.5472 0 0.9797 0 1.8615-0.685 2.7432l-13.393 22.435c-0.293 0.5878-0.978 1.2736-1.858 1.5675-0.879 0.2939-1.564 0.5878-2.444 0.2939-0.977 0-1.564-0.6858-2.15-1.2736l-6.062-6.2701-23.951 24.493z" fill="#2977ff"/>
  <path d="m47.805 97.677 7.0388 7.5434c0.8799 0.98 1.1732 1.862 1.1732 2.842 0 1.273-0.2933 2.155-1.2709 2.743l-24.245 24.198s-0.2933 0-0.2933 0.294c-1.5641 1.568-3.4216 2.744-5.2791 3.331-6.2567 2.744-12.416 1.078-17.89-4.898-1.8575-1.568-3.6172-3.821-4.8881-6.27-3.0306-5.683-2.6396-11.267 0.58656-16.459 0.29329-0.294 0.29329-0.588 0.58657-0.588l25.516-25.375c0.9776-0.8817 1.8574-1.1756 2.835-1.1756 1.2709 0 2.1508 0.2939 3.1284 1.2736l7.0388 6.662z" fill="#fff" opacity=".2"/>
  <path d="m93.166 28.216c-0.5866-0.5878-0.8799-1.2736-0.8799-2.1553 0-0.9797 0-1.5675 0.3911-2.4493 0.2933-0.5878 0.9776-1.2736 1.5641-1.8614l21.898-12.148c0.978-0.29391 1.858-0.58782 2.835-0.58782 0.88 0.29391 1.858 0.68579 2.444 1.2736l8.506 8.8174c0.586 0.5878 0.88 1.5675 1.173 2.5472 0 0.9797 0 1.8615-0.685 2.7432l-13.393 22.435c-0.293 0.5878-0.977 1.2736-1.857 1.5675s-1.564 0.5878-2.444 0.2939c-0.978 0-1.564-0.6858-2.151-1.2736l-6.061-6.2701z" fill="#fff" opacity=".2"/>
 </g>
 <defs>
  <clipPath id="clip0">
   <rect width="131" height="140" fill="#fff"/>
  </clipPath>
 </defs>
</svg>