<svg xmlns="http://www.w3.org/2000/svg" viewBox="0 0 114.82 84.43"><defs><style>.cls-1{fill:#fff;}.cls-2{fill:#2977ff;}.cls-3{fill:#65c8d0;}</style></defs><title>VoitureBLANC</title><g id="Calque_2" data-name="Calque 2"><g id="Calque_1-2" data-name="Calque 1"><path class="cls-1" d="M28,67.68H86.72v11a3.11,3.11,0,0,0,3.07,3.07h14.79a3,3,0,0,0,2.93-3.07c0-5.81,0-11.63.07-17.46s.07-11.57.07-17.39L103.17,33l1.95,0c3.83-.09,6.2-1.17,6.85-3.12a4,4,0,0,0-.44-3.31H100.16L92.75,9.82C88.87,4.41,86.1,2.67,81.4,2.67H33.49c-4.69,0-7.46,1.74-11.35,7.15l-7.4,16.74H3.31a3.84,3.84,0,0,0-.48,3.25c.62,2,3,3.08,6.8,3.18l1.95,0L7.1,43.82c.14,11.72.14,23.48.14,34.86a3.11,3.11,0,0,0,3.07,3.07H25.1A3,3,0,0,0,28,78.68Z"/><path class="cls-2" d="M104.58,84.43H89.79A5.75,5.75,0,0,1,84,78.68V70.35H30.7v8.34a5.61,5.61,0,0,1-5.6,5.74H10.31a5.75,5.75,0,0,1-5.74-5.74c0-11.46,0-23.31-.14-35.1v-.27l3.23-7.79C.52,34.66,0,30.1,0,28.63c0-2.24,1.29-4.74,3.06-4.74H13L19.89,8.38C24.36,2.11,27.79,0,33.48,0H81.4C87.1,0,90.53,2.11,95,8.38l.13.24,6.76,15.27h9.94c1.73,0,3,2.5,3,4.74,0,1.47-.53,6-7.73,6.89l3.23,7.78v.27c0,5.92,0,11.81-.07,17.67s-.07,11.64-.07,17.45A5.61,5.61,0,0,1,104.58,84.43ZM28,67.68H86.72v11a3.11,3.11,0,0,0,3.07,3.07h14.79a3,3,0,0,0,2.93-3.07c0-5.81,0-11.63.07-17.46s.07-11.57.07-17.39L103.17,33l1.95,0c3.83-.09,6.2-1.17,6.85-3.12a4,4,0,0,0-.44-3.31H100.15L92.75,9.82C88.87,4.41,86.09,2.67,81.4,2.67H33.48c-4.69,0-7.46,1.74-11.35,7.15l-7.4,16.74H3.31a3.84,3.84,0,0,0-.48,3.25c.62,2,3,3.08,6.8,3.18l1.95,0L7.1,43.82c.14,11.72.14,23.48.14,34.86a3.11,3.11,0,0,0,3.07,3.07H25.1A3,3,0,0,0,28,78.68Z"/><path class="cls-2" d="M97.13,31.53H17.76l.86-1.89c.71-1.55,1.4-3.11,2.11-4.7,1.57-3.53,3.19-7.19,5.16-11.13C27.53,11,29.55,8,33.36,7.68h48c3.94.35,6,3.32,7.55,6.07,2,4,3.64,7.69,5.22,11.23.7,1.58,1.39,3.13,2.09,4.66ZM21.9,28.86H93l-1.25-2.8c-1.56-3.52-3.18-7.15-5.13-11.05-1.61-2.77-3-4.46-5.33-4.67H33.48c-2.19.2-3.6,1.89-5.24,4.74-1.9,3.82-3.52,7.44-5.07,10.95Z"/><path class="cls-2" d="M72.44,58.69H42.3a4.68,4.68,0,0,1,0-9.35H72.44a4.68,4.68,0,0,1,0,9.35ZM42.3,52a2.12,2.12,0,0,0-1.94,2.08A2.07,2.07,0,0,0,42.3,56H72.44a2,2,0,0,0,1.94-1.94A2,2,0,0,0,72.44,52Z"/><path class="cls-3" d="M22,60a8.45,8.45,0,0,1-8.44-8.44A8.35,8.35,0,0,1,22,43.08a8.45,8.45,0,0,1,8.44,8.44A8.56,8.56,0,0,1,22,60Zm0-14.22a5.71,5.71,0,0,0-5.77,5.78A5.78,5.78,0,0,0,22,57.3a5.93,5.93,0,0,0,5.78-5.78A5.78,5.78,0,0,0,22,45.75Z"/><path class="cls-3" d="M93,60.07a8.45,8.45,0,0,1-8.44-8.44A8.35,8.35,0,0,1,93,43.18a8.45,8.45,0,0,1,8.44,8.44A8.56,8.56,0,0,1,93,60.07Zm0-14.22a5.71,5.71,0,0,0-5.78,5.78A5.78,5.78,0,0,0,93,57.4a5.93,5.93,0,0,0,5.78-5.78A5.78,5.78,0,0,0,93,45.85Z"/></g></g></svg>